<?xml version="1.0" encoding="utf-8"?>
<!-- Generator: Adobe Illustrator 27.1.1, SVG Export Plug-In . SVG Version: 6.00 Build 0)  -->
<svg version="1.1" id="Capa_1" xmlns="http://www.w3.org/2000/svg" xmlns:xlink="http://www.w3.org/1999/xlink" x="0px" y="0px"
	 viewBox="0 0 384 512" style="enable-background:new 0 0 384 512;" xml:space="preserve">
<style type="text/css">
	.st0{fill:#FFFFFF;}
</style>
<path class="st0" d="M280,64h40c35.3,0,64,28.7,64,64v320c0,35.3-28.7,64-64,64H64c-35.3,0-64-28.7-64-64V128c0-35.3,28.7-64,64-64
	h40h9.6C121,27.5,153.3,0,192,0s71,27.5,78.4,64H280z M64,112c-8.8,0-16,7.2-16,16v320c0,8.8,7.2,16,16,16h256c8.8,0,16-7.2,16-16
	V128c0-8.8-7.2-16-16-16h-16v24c0,13.3-10.7,24-24,24h-88h-88c-13.3,0-24-10.7-24-24v-24H64z M192,104c13.3,0,24-10.7,24-24
	s-10.7-24-24-24s-24,10.7-24,24S178.7,104,192,104z"/>
</svg>
